{"title":"The.Hills.Have.Eyes.2006.Unrated.BDRip.720p.x264.Iou1","uid":8604565,"size":1461798484,"categoryP":"video","categoryS":"hd___movies","magnet":"?xt=urn:btih:6700518c79e7e8f26ae335aaa5393329ab6e6b3b&amp;dn=The.Hills.Have.Eyes.2006.Unrated.BDRip.720p.x264.Iou1&amp;tr=udp%3A%2F%2Ftracker.openbittorrent.com%3A80&amp;tr=udp%3A%2F%2Fopen.demonii.com%3A1337&amp;tr=udp%3A%2F%2Ftracker.coppersurfer.tk%3A6969&amp;tr=udp%3A%2F%2Fexodus.desync.com%3A6969","seeders":2,"leechers":0,"uploader":"jaybee211","files":-1,"time":1371979071,"description":"Format                                   : MPEG-4\nFormat profile                           : Base Media / Version 2\nCodec ID                                 : mp42\nFile size                                : 1.36 GiB\nDuration                                 : 1h 48mn\nOverall bit rate mode                    : Variable\nOverall bit rate                         : 1 797 Kbps\n\nVideo\nID                                       : 1\nFormat                                   : AVC\nFormat/Info                              : Advanced Video Codec\nFormat profile                           : High@L3.1\nFormat settings, CABAC                   : Yes\nFormat settings, ReFrames                : 4 frames\nCodec ID                                 : avc1\nCodec ID/Info                            : Advanced Video Coding\nDuration                                 : 1h 48mn\nBit rate mode                            : Variable\nBit rate                                 : 1 606 Kbps\nMaximum bit rate                         : 9 375 Kbps\nWidth                                    : 1 280 pixels\nHeight                                   : 544 pixels\nDisplay aspect ratio                     : 2.35:1\nFrame rate mode                          : Constant\nFrame rate                               : 23.976 fps\nColor space                              : YUV\nChroma subsampling                       : 4:2:0\nBit depth                                : 8 bits\nScan type                                : Progressive\nBits/(Pixel*Frame)                       : 0.096\nStream size                              : 1.22 GiB (89%)\nLanguage                                 : English\n\nAudio\nID                                       : 2\nFormat                                   : AAC\nFormat/Info                              : Advanced Audio Codec\nFormat profile                           : LC\nCodec ID                                 : 40\nDuration                                 : 1h 48mn\nBit rate mode                            : Variable\nBit rate                                 : 187 Kbps\nMaximum bit rate                         : 210 Kbps\nChannel(s)                               : 6 channels\nChannel positions                        : Front: L C R, Side: L R, LFE\nSampling rate                            : 48.0 KHz\nCompression mode                         : Lossy\nStream size                              : 145 MiB (10%)\nTitle                                    : AAC 2-ch 48KHz,English\nLanguage                                 : English\nSubtitles                                : None\n\nIMDB. &lt;a href=&quot; http://www.imdb.com/title/tt0454841/&quot; rel=&quot;nofollow&quot; target=&quot;_NEW&quot;&gt; http://www.imdb.com/title/tt0454841/&lt;/a&gt;\n\nStoryline.\nWes Craven produces this remake of his 1977 classic of the same name, about the Carters, an idyllic American family travelling through the great American southwest. But their trip takes a detour into an area closed off from the public, but more importantly from society. An area originally used by the U.S. Government for nuclear testing that was intended to be empty...or so they thought? When the Carter's car breaks down at the old site, they're stranded...or are they? As the Carters may soon realize that what seemed like a car casually breaking down, might actually be a trap. This trap might be perpetrated by the inhabitants of the site who aren't pulling a prank, but are out to set up a gruesome massacre.\n\n\nScreens. &lt;a href=&quot; http://bayimg.com/DANfaaAeG&quot; rel=&quot;nofollow&quot; target=&quot;_NEW&quot;&gt; http://bayimg.com/DANfaaAeG&lt;/a&gt;\n\n         &lt;a href=&quot; http://bayimg.com/dANfcAaeg&quot; rel=&quot;nofollow&quot; target=&quot;_NEW&quot;&gt; http://bayimg.com/dANfcAaeg&lt;/a&gt;\n\n         &lt;a href=&quot; http://bayimg.com/dANfDAAEG&quot; rel=&quot;nofollow&quot; target=&quot;_NEW&quot;&gt; http://bayimg.com/dANfDAAEG&lt;/a&gt;\n\n         &lt;a href=&quot; http://bayimg.com/dANfFAAEg&quot; rel=&quot;nofollow&quot; target=&quot;_NEW&quot;&gt; http://bayimg.com/dANfFAAEg&lt;/a&gt;\n\nEnjoy.","torrent":{"xt":"urn:btih:6700518c79e7e8f26ae335aaa5393329ab6e6b3b","amp;dn":"The.Hills.Have.Eyes.2006.Unrated.BDRip.720p.x264.Iou1","amp;tr":["udp%3A%2F%2Ftracker.openbittorrent.com%3A80","udp%3A%2F%2Fopen.demonii.com%3A1337","udp%3A%2F%2Ftracker.coppersurfer.tk%3A6969","udp%3A%2F%2Fexodus.desync.com%3A6969"],"infoHash":"6700518c79e7e8f26ae335aaa5393329ab6e6b3b","infoHashBuffer":{"type":"Buffer","data":[103,0,81,140,121,231,232,242,106,227,53,170,165,57,51,41,171,110,107,59]},"announce":[],"urlList":[]}}